<svg xmlns="http://www.w3.org/2000/svg" width="430" height="430" fill="none" viewBox="0 0 430 430"><path fill="#ebe6ef" d="M54 376.2h322V133.801H54z"/><path fill="#ebe6ef" d="M84 376.2H54V133.801h30z" opacity=".5" style="mix-blend-mode:multiply"/><path fill="#3a3347" d="M86.2 53.8v43.6h43.7V53.8zm213.9 0v43.6h43.7V53.8z"/><path fill="#3a3347" d="M86.2 53.8v43.6h21.85V53.8zm213.9 0v43.6h21.85V53.8z" opacity=".5" style="mix-blend-mode:multiply"/><path fill="#f24c00" d="M54 139.501h322v-47.1H54z"/><path fill="#f24c00" d="M84 139.501H54v-47.1h30z" opacity=".5" style="mix-blend-mode:multiply"/><path stroke="#000" stroke-linecap="round" stroke-linejoin="round" stroke-miterlimit="12.88" stroke-width="10.5" d="M376 376.2H54V92.4h322zM129.9 92.4V53.8H86.2v38.6m257.6 0V53.8h-43.7v38.6m75.9 47.1H54"/><path stroke="#000" stroke-linecap="round" stroke-linejoin="round" stroke-width="10.5" d="M286.451 305c-.502-5.053-4.766-9-9.951-9H264c-5.523 0-10 4.477-10 10v25c0 5.523 4.477 10 10 10h12.5c5.185 0 9.449-3.947 9.951-9M142 296h17.5c8.284 0 15 6.716 15 15v15c0 8.284-6.716 15-15 15H142zm86 0h-27.5v45H228m-4.01-22.494-23.49-.006M148 201.584v-8.091C148 183.28 156.28 175 166.493 175h13.87c10.214 0 18.494 8.28 18.494 18.493v7.899a13.87 13.87 0 0 1-6.693 11.868l-37.472 21.264A13.87 13.87 0 0 0 148 246.392v11.828h53.168m74.434-19.649H238.26c-7.075 0-11.529-7.623-8.055-13.787L258.265 175m17.337 63.571v-27.162m0 27.162v19.649"/></svg>